<mxfile host="app.diagrams.net" agent="Mozilla/5.0 (Macintosh; Intel Mac OS X 10_15_7) AppleWebKit/537.36 (KHTML, like Gecko) Chrome/135.0.0.0 Safari/537.36" border="50" scale="3" compressed="false" locked="false" version="26.2.15">
  <diagram name="Blank" id="YmL12bMKpDGza6XwsDPr">
    <mxGraphModel dx="1370" dy="677" grid="0" gridSize="10" guides="1" tooltips="1" connect="1" arrows="1" fold="1" page="0" pageScale="1" pageWidth="827" pageHeight="1169" background="none" math="1" shadow="0">
      <root>
        <mxCell id="X5NqExCQtvZxIxQ7pmgY-0" />
        <mxCell id="1" parent="X5NqExCQtvZxIxQ7pmgY-0" />
        <mxCell id="skep97OKC8N1-sXNvsjO-41" value="" style="shape=cylinder3;whiteSpace=wrap;html=1;boundedLbl=1;backgroundOutline=1;size=15;" vertex="1" parent="1">
          <mxGeometry x="39" y="411" width="108" height="81" as="geometry" />
        </mxCell>
        <mxCell id="skep97OKC8N1-sXNvsjO-42" value="Workflow" style="text;html=1;align=center;verticalAlign=middle;whiteSpace=wrap;rounded=0;fontStyle=1" vertex="1" parent="1">
          <mxGeometry x="63" y="414" width="60" height="30" as="geometry" />
        </mxCell>
        <mxCell id="skep97OKC8N1-sXNvsjO-43" value="Event Metadata" style="text;html=1;align=center;verticalAlign=middle;whiteSpace=wrap;rounded=0;fontStyle=1" vertex="1" parent="1">
          <mxGeometry x="43.5" y="452" width="99" height="30" as="geometry" />
        </mxCell>
        <mxCell id="skep97OKC8N1-sXNvsjO-52" style="edgeStyle=orthogonalEdgeStyle;rounded=0;orthogonalLoop=1;jettySize=auto;html=1;" edge="1" parent="1" target="skep97OKC8N1-sXNvsjO-47">
          <mxGeometry relative="1" as="geometry">
            <mxPoint x="419" y="451.2857142857142" as="sourcePoint" />
          </mxGeometry>
        </mxCell>
        <mxCell id="skep97OKC8N1-sXNvsjO-45" value="Workflow" style="rounded=0;whiteSpace=wrap;html=1;fontStyle=1;fontSize=13;fillColor=#d5e8d4;gradientColor=#97d077;strokeColor=none;" vertex="1" parent="1">
          <mxGeometry x="299" y="361" width="120" height="200.5" as="geometry" />
        </mxCell>
        <mxCell id="skep97OKC8N1-sXNvsjO-46" value="" style="endArrow=classic;html=1;rounded=0;entryX=0.024;entryY=0.445;entryDx=0;entryDy=0;entryPerimeter=0;exitX=1;exitY=0.5;exitDx=0;exitDy=0;exitPerimeter=0;" edge="1" parent="1" source="skep97OKC8N1-sXNvsjO-41" target="skep97OKC8N1-sXNvsjO-45">
          <mxGeometry width="50" height="50" relative="1" as="geometry">
            <mxPoint x="203" y="457" as="sourcePoint" />
            <mxPoint x="299" y="457" as="targetPoint" />
          </mxGeometry>
        </mxCell>
        <mxCell id="skep97OKC8N1-sXNvsjO-50" value="/workflow/v1.0.0/&lt;div&gt;campaign/event_data_export&lt;/div&gt;" style="edgeLabel;html=1;align=left;verticalAlign=middle;resizable=0;points=[];" vertex="1" connectable="0" parent="skep97OKC8N1-sXNvsjO-46">
          <mxGeometry x="-0.4871" y="-4" relative="1" as="geometry">
            <mxPoint x="-40" y="29" as="offset" />
          </mxGeometry>
        </mxCell>
        <mxCell id="skep97OKC8N1-sXNvsjO-47" value="" style="shape=cylinder3;whiteSpace=wrap;html=1;boundedLbl=1;backgroundOutline=1;size=15;" vertex="1" parent="1">
          <mxGeometry x="581" y="410.75" width="196" height="81" as="geometry" />
        </mxCell>
        <mxCell id="skep97OKC8N1-sXNvsjO-48" value="CDP" style="text;html=1;align=center;verticalAlign=middle;whiteSpace=wrap;rounded=0;fontStyle=1" vertex="1" parent="1">
          <mxGeometry x="649" y="410.75" width="60" height="30" as="geometry" />
        </mxCell>
        <mxCell id="skep97OKC8N1-sXNvsjO-49" value="&lt;p style=&quot;language:zh-CN;margin-top:0pt;margin-bottom:0pt;margin-left:0in;&lt;br/&gt;text-align:left;direction:ltr;unicode-bidi:embed;mso-line-break-override:none;&lt;br/&gt;word-break:normal;punctuation-wrap:hanging&quot;&gt;&lt;span style=&quot;font-size: 8pt; font-family: Calibri;&quot;&gt;CDP_BEHAVIOR_ATTRIBUTE&lt;/span&gt;&lt;/p&gt;&lt;p style=&quot;language:zh-CN;margin-top:0pt;margin-bottom:0pt;margin-left:0in;&lt;br/&gt;text-align:left;direction:ltr;unicode-bidi:embed;mso-line-break-override:none;&lt;br/&gt;word-break:normal;punctuation-wrap:hanging&quot;&gt;&lt;span style=&quot;font-size: 8pt; font-family: Calibri;&quot;&gt;CDP_BEHAVIOR_ATTRIBUTE_ENTIT&lt;/span&gt;&lt;/p&gt;&lt;div&gt;&lt;br&gt;&lt;/div&gt;" style="text;html=1;align=left;verticalAlign=middle;whiteSpace=wrap;rounded=0;fontStyle=1" vertex="1" parent="1">
          <mxGeometry x="600" y="453.75" width="99" height="30" as="geometry" />
        </mxCell>
        <mxCell id="skep97OKC8N1-sXNvsjO-53" value="/aimas/workflow/v1.0.0/&lt;div&gt;campaign/migration&lt;/div&gt;" style="edgeLabel;html=1;align=left;verticalAlign=middle;resizable=0;points=[];" vertex="1" connectable="0" parent="1">
          <mxGeometry x="431.00163153618337" y="471.9999423089808" as="geometry" />
        </mxCell>
        <mxCell id="skep97OKC8N1-sXNvsjO-56" value="1" style="strokeWidth=2;html=1;shape=mxgraph.flowchart.start_2;whiteSpace=wrap;fillColor=#FF6666;strokeColor=none;" vertex="1" parent="1">
          <mxGeometry x="163" y="400" width="33" height="32" as="geometry" />
        </mxCell>
        <mxCell id="skep97OKC8N1-sXNvsjO-58" value="export Metadata" style="text;html=1;align=center;verticalAlign=middle;resizable=0;points=[];autosize=1;strokeColor=none;fillColor=none;" vertex="1" parent="1">
          <mxGeometry x="191" y="403" width="105" height="26" as="geometry" />
        </mxCell>
        <mxCell id="skep97OKC8N1-sXNvsjO-59" value="2" style="strokeWidth=2;html=1;shape=mxgraph.flowchart.start_2;whiteSpace=wrap;fillColor=#FF6666;strokeColor=none;" vertex="1" parent="1">
          <mxGeometry x="441" y="400" width="33" height="32" as="geometry" />
        </mxCell>
        <mxCell id="skep97OKC8N1-sXNvsjO-60" value="import Metadata" style="text;html=1;align=center;verticalAlign=middle;resizable=0;points=[];autosize=1;strokeColor=none;fillColor=none;" vertex="1" parent="1">
          <mxGeometry x="469" y="403" width="105" height="26" as="geometry" />
        </mxCell>
        <mxCell id="skep97OKC8N1-sXNvsjO-69" style="edgeStyle=orthogonalEdgeStyle;rounded=0;orthogonalLoop=1;jettySize=auto;html=1;exitX=0.5;exitY=1;exitDx=0;exitDy=0;" edge="1" parent="1" source="skep97OKC8N1-sXNvsjO-63" target="skep97OKC8N1-sXNvsjO-68">
          <mxGeometry relative="1" as="geometry" />
        </mxCell>
        <mxCell id="skep97OKC8N1-sXNvsjO-63" value="Rule Engine" style="rounded=0;whiteSpace=wrap;html=1;fontStyle=1;fontSize=13;fillColor=#d5e8d4;gradientColor=#97d077;strokeColor=none;" vertex="1" parent="1">
          <mxGeometry x="237" y="721" width="120" height="136" as="geometry" />
        </mxCell>
        <mxCell id="skep97OKC8N1-sXNvsjO-67" style="edgeStyle=orthogonalEdgeStyle;rounded=0;orthogonalLoop=1;jettySize=auto;html=1;entryX=1;entryY=0.5;entryDx=0;entryDy=0;" edge="1" parent="1" source="skep97OKC8N1-sXNvsjO-65" target="skep97OKC8N1-sXNvsjO-63">
          <mxGeometry relative="1" as="geometry" />
        </mxCell>
        <mxCell id="skep97OKC8N1-sXNvsjO-65" value="Drolls script" style="shape=document;whiteSpace=wrap;html=1;boundedLbl=1;" vertex="1" parent="1">
          <mxGeometry x="419" y="642" width="106" height="74" as="geometry" />
        </mxCell>
        <mxCell id="skep97OKC8N1-sXNvsjO-68" value="" style="strokeWidth=2;html=1;shape=mxgraph.flowchart.database;whiteSpace=wrap;rotation=90;" vertex="1" parent="1">
          <mxGeometry x="478" y="827" width="51" height="99.5" as="geometry" />
        </mxCell>
        <mxCell id="skep97OKC8N1-sXNvsjO-70" value="CP" style="text;html=1;align=center;verticalAlign=middle;whiteSpace=wrap;rounded=0;" vertex="1" parent="1">
          <mxGeometry x="469" y="862" width="60" height="30" as="geometry" />
        </mxCell>
        <mxCell id="skep97OKC8N1-sXNvsjO-87" style="edgeStyle=orthogonalEdgeStyle;rounded=0;orthogonalLoop=1;jettySize=auto;html=1;entryX=0;entryY=0.5;entryDx=0;entryDy=0;" edge="1" parent="1" source="skep97OKC8N1-sXNvsjO-72" target="skep97OKC8N1-sXNvsjO-79">
          <mxGeometry relative="1" as="geometry" />
        </mxCell>
        <mxCell id="skep97OKC8N1-sXNvsjO-72" value="" style="rounded=0;whiteSpace=wrap;html=1;fillColor=#f5f5f5;gradientColor=#b3b3b3;strokeColor=none;" vertex="1" parent="1">
          <mxGeometry x="-191" y="640" width="114" height="222" as="geometry" />
        </mxCell>
        <mxCell id="skep97OKC8N1-sXNvsjO-73" value="SAP cc" style="rounded=0;whiteSpace=wrap;html=1;" vertex="1" parent="1">
          <mxGeometry x="-179" y="685.25" width="90" height="30" as="geometry" />
        </mxCell>
        <mxCell id="skep97OKC8N1-sXNvsjO-74" value="Source system&lt;div&gt;(RAW Event)&lt;/div&gt;" style="text;html=1;align=center;verticalAlign=middle;whiteSpace=wrap;rounded=0;" vertex="1" parent="1">
          <mxGeometry x="-179" y="644.25" width="92" height="30" as="geometry" />
        </mxCell>
        <mxCell id="skep97OKC8N1-sXNvsjO-75" value="POS" style="rounded=0;whiteSpace=wrap;html=1;" vertex="1" parent="1">
          <mxGeometry x="-179" y="736.25" width="90" height="27" as="geometry" />
        </mxCell>
        <mxCell id="skep97OKC8N1-sXNvsjO-76" value="SMS/Email/App push" style="rounded=0;whiteSpace=wrap;html=1;" vertex="1" parent="1">
          <mxGeometry x="-179" y="781.25" width="90" height="30" as="geometry" />
        </mxCell>
        <mxCell id="skep97OKC8N1-sXNvsjO-77" value="..." style="rounded=0;whiteSpace=wrap;html=1;" vertex="1" parent="1">
          <mxGeometry x="-179" y="826.25" width="90" height="30" as="geometry" />
        </mxCell>
        <mxCell id="skep97OKC8N1-sXNvsjO-78" value="Filtered Event" style="rounded=0;whiteSpace=wrap;html=1;" vertex="1" parent="1">
          <mxGeometry x="340" y="861" width="80" height="35" as="geometry" />
        </mxCell>
        <mxCell id="skep97OKC8N1-sXNvsjO-85" style="edgeStyle=orthogonalEdgeStyle;rounded=0;orthogonalLoop=1;jettySize=auto;html=1;entryX=0;entryY=0.5;entryDx=0;entryDy=0;" edge="1" parent="1" source="skep97OKC8N1-sXNvsjO-79" target="skep97OKC8N1-sXNvsjO-63">
          <mxGeometry relative="1" as="geometry">
            <Array as="points">
              <mxPoint x="214" y="705" />
              <mxPoint x="214" y="789" />
            </Array>
          </mxGeometry>
        </mxCell>
        <mxCell id="skep97OKC8N1-sXNvsjO-79" value="" style="rounded=0;whiteSpace=wrap;html=1;fillColor=#fff2cc;strokeColor=none;" vertex="1" parent="1">
          <mxGeometry x="-8" y="640" width="114" height="222" as="geometry" />
        </mxCell>
        <mxCell id="skep97OKC8N1-sXNvsjO-80" value="e-Com" style="rounded=0;whiteSpace=wrap;html=1;" vertex="1" parent="1">
          <mxGeometry x="4" y="685.25" width="90" height="30" as="geometry" />
        </mxCell>
        <mxCell id="skep97OKC8N1-sXNvsjO-81" value="Processed Event" style="text;html=1;align=center;verticalAlign=middle;whiteSpace=wrap;rounded=0;" vertex="1" parent="1">
          <mxGeometry x="-6" y="644.25" width="110" height="30" as="geometry" />
        </mxCell>
        <mxCell id="skep97OKC8N1-sXNvsjO-82" value="Loyalty" style="rounded=0;whiteSpace=wrap;html=1;" vertex="1" parent="1">
          <mxGeometry x="4" y="721" width="90" height="27" as="geometry" />
        </mxCell>
        <mxCell id="skep97OKC8N1-sXNvsjO-83" value="Marketing" style="rounded=0;whiteSpace=wrap;html=1;" vertex="1" parent="1">
          <mxGeometry x="4" y="787.25" width="90" height="30" as="geometry" />
        </mxCell>
        <mxCell id="skep97OKC8N1-sXNvsjO-84" value="..." style="rounded=0;whiteSpace=wrap;html=1;" vertex="1" parent="1">
          <mxGeometry x="4" y="826.25" width="90" height="30" as="geometry" />
        </mxCell>
        <mxCell id="skep97OKC8N1-sXNvsjO-64" value="Event" style="rounded=0;whiteSpace=wrap;html=1;" vertex="1" parent="1">
          <mxGeometry x="124" y="685.25" width="80" height="37.75" as="geometry" />
        </mxCell>
        <mxCell id="skep97OKC8N1-sXNvsjO-86" value="Retail O+O" style="rounded=0;whiteSpace=wrap;html=1;" vertex="1" parent="1">
          <mxGeometry x="4" y="754.25" width="90" height="27" as="geometry" />
        </mxCell>
        <mxCell id="skep97OKC8N1-sXNvsjO-88" value="flink job" style="rounded=0;whiteSpace=wrap;html=1;" vertex="1" parent="1">
          <mxGeometry x="-68" y="737.5" width="45" height="27" as="geometry" />
        </mxCell>
      </root>
    </mxGraphModel>
  </diagram>
</mxfile>
